<svg id="レイヤー_1" data-name="レイヤー 1" xmlns="http://www.w3.org/2000/svg" viewBox="0 0 67.75 91.53"><defs><style>.cls-1{fill:#fff;}</style></defs><title>good</title><path class="cls-1" d="M31.7,63.4l2.4,5.9a1.85,1.85,0,0,0,2.2,1.1l6.1-1.8a1.73,1.73,0,0,1,1.7.4l4.7,4.3a1.82,1.82,0,0,0,2.4,0L55.9,69a1.79,1.79,0,0,1,1.7-.4l6.1,1.8a1.75,1.75,0,0,0,2.2-1.1l2.4-5.9a1.77,1.77,0,0,1,1.4-1.1l6.3-1a1.77,1.77,0,0,0,1.5-1.9L77.1,53a2.09,2.09,0,0,1,.8-1.6l5.2-3.6a1.75,1.75,0,0,0,.5-2.4l-3.1-5.5a1.91,1.91,0,0,1,0-1.8l3.1-5.5a1.85,1.85,0,0,0-.5-2.4l-5.2-3.6a2.09,2.09,0,0,1-.8-1.6l0.4-6.3A1.77,1.77,0,0,0,76,16.8l-6.3-1a1.77,1.77,0,0,1-1.4-1.1L66,8.7a1.85,1.85,0,0,0-2.2-1.1L57.7,9.4A1.73,1.73,0,0,1,56,9L51.3,4.7a1.82,1.82,0,0,0-2.4,0L44.1,9a1.79,1.79,0,0,1-1.7.4L36.3,7.6a1.75,1.75,0,0,0-2.2,1.1l-2.4,5.9a1.77,1.77,0,0,1-1.4,1.1l-6.3,1a1.77,1.77,0,0,0-1.5,1.9l0.4,6.3a2.09,2.09,0,0,1-.8,1.6l-5.2,3.6a1.75,1.75,0,0,0-.5,2.4L19.5,38a1.91,1.91,0,0,1,0,1.8l-3.1,5.5a1.85,1.85,0,0,0,.5,2.4l5.2,3.6a2.09,2.09,0,0,1,.8,1.6l-0.4,6.3A1.77,1.77,0,0,0,24,61.1l6.3,1A3,3,0,0,1,31.7,63.4Zm2.6-31,10-.7,3.8-9.3a2.13,2.13,0,0,1,3.9,0l3.8,9.3,10,0.7A2.1,2.1,0,0,1,67,36.1l-7.7,6.5,2.4,9.7a2.08,2.08,0,0,1-3.1,2.3L50,49.3l-8.5,5.3a2.08,2.08,0,0,1-3.1-2.3l2.4-9.7-7.7-6.5A2.08,2.08,0,0,1,34.3,32.4Z" transform="translate(-16.13 -4.25)"/><path class="cls-1" d="M64.3,74.6a4.67,4.67,0,0,1-1.7-.3l-4.8-1.5L54,76.3c-0.1.1-.3,0.2-0.4,0.3l6,18.6a0.91,0.91,0,0,0,1.5.3l4.4-5.6a0.81,0.81,0,0,1,.9-0.3l6.8,2a0.8,0.8,0,0,0,1-1.1L68.5,72.9A6.35,6.35,0,0,1,64.3,74.6Z" transform="translate(-16.13 -4.25)"/><path class="cls-1" d="M26.9,91.5l6.8-2a0.81,0.81,0,0,1,.9.3L39,95.4a0.87,0.87,0,0,0,1.5-.3l6-18.6c-0.1-.1-0.3-0.2-0.4-0.3l-3.7-3.4-4.8,1.5a5.08,5.08,0,0,1-1.7.3,6,6,0,0,1-4.2-1.8L26,90.4A0.74,0.74,0,0,0,26.9,91.5Z" transform="translate(-16.13 -4.25)"/></svg>