<svg id="レイヤー_1" data-name="レイヤー 1" xmlns="http://www.w3.org/2000/svg" viewBox="0 0 90 81.78"><defs><style>.cls-1{fill:#fff;}</style></defs><title>sale</title><path class="cls-1" d="M13.38,44.25L5.16,74.94A4.79,4.79,0,0,0,8.55,80.8L24.31,85Z" transform="translate(-5 -9.11)"/><path class="cls-1" d="M22.46,53.46l9.08,33.88a4.79,4.79,0,0,0,5.86,3.39L55,86Z" transform="translate(-5 -9.11)"/><path class="cls-1" d="M49.64,45.61a5.91,5.91,0,0,0-1-1.33l-1.38-1.33a5.68,5.68,0,0,0-1.38-1,4.4,4.4,0,0,0-1.54-.46,3.52,3.52,0,0,0-1.58.21,4.34,4.34,0,0,0-2.44,2.53,3.53,3.53,0,0,0-.14,1.58,4.38,4.38,0,0,0,.52,1.52,5.65,5.65,0,0,0,1,1.34L43.08,50a5.56,5.56,0,0,0,1.37,1,4.3,4.3,0,0,0,1.54.45,3.65,3.65,0,0,0,1.59-.21,4,4,0,0,0,1.5-1A3.83,3.83,0,0,0,50,48.68a3.6,3.6,0,0,0,.15-1.57A4.09,4.09,0,0,0,49.64,45.61Z" transform="translate(-5 -9.11)"/><path class="cls-1" d="M93.6,47.86L54.85,9.11H27.39A6.39,6.39,0,0,0,21,15.5V43L59.74,81.71a4.79,4.79,0,0,0,6.77,0L93.6,54.63A4.78,4.78,0,0,0,93.6,47.86ZM35.28,23.39a4.79,4.79,0,1,1,0-6.77A4.78,4.78,0,0,1,35.28,23.39ZM52.93,49.63a7.66,7.66,0,0,1-1.71,2.63,7.8,7.8,0,0,1-2.6,1.83,7.17,7.17,0,0,1-2.79.58,6.83,6.83,0,0,1-2.73-.57,8.11,8.11,0,0,1-2.42-1.63l-1.38-1.33a8.17,8.17,0,0,1-1.73-2.38,7.06,7.06,0,0,1-.69-2.7,6.94,6.94,0,0,1,.46-2.8,8.39,8.39,0,0,1,4.32-4.48,6.81,6.81,0,0,1,2.78-.55,7.18,7.18,0,0,1,2.72.6,8.17,8.17,0,0,1,2.44,1.64L51,41.8a8.29,8.29,0,0,1,1.72,2.35,6.79,6.79,0,0,1,.69,2.69A7.11,7.11,0,0,1,52.93,49.63Zm8.37,14.53-8.1-32.37,3-.74,8.1,32.37ZM79.87,51.11a7.63,7.63,0,0,1-1.71,2.63,7.79,7.79,0,0,1-2.6,1.83,7.16,7.16,0,0,1-2.78.58A6.82,6.82,0,0,1,70,55.58a8.15,8.15,0,0,1-2.44-1.65l-1.4-1.35a8.2,8.2,0,0,1-1.72-2.37,6.92,6.92,0,0,1-.69-2.71,7,7,0,0,1,.47-2.8,8.4,8.4,0,0,1,4.32-4.47,7,7,0,0,1,2.78-.57,6.91,6.91,0,0,1,2.73.59,8.2,8.2,0,0,1,2.43,1.63l1.4,1.35a8.17,8.17,0,0,1,1.73,2.38,6.93,6.93,0,0,1,.68,2.7A7,7,0,0,1,79.87,51.11Z" transform="translate(-5 -9.11)"/><path class="cls-1" d="M76.56,47.07a5.94,5.94,0,0,0-1-1.33l-1.4-1.35a5.66,5.66,0,0,0-1.38-1,4.29,4.29,0,0,0-1.53-.46,3.57,3.57,0,0,0-1.57.21,3.92,3.92,0,0,0-1.49,1,3.84,3.84,0,0,0-.94,1.51,3.76,3.76,0,0,0-.15,1.58,4.11,4.11,0,0,0,.5,1.52,5.61,5.61,0,0,0,1,1.34L70,51.46a5.68,5.68,0,0,0,1.38,1,4.28,4.28,0,0,0,1.55.46,3.64,3.64,0,0,0,1.59-.21,4,4,0,0,0,1.5-1,3.85,3.85,0,0,0,.94-1.51,3.56,3.56,0,0,0,.14-1.58A4.29,4.29,0,0,0,76.56,47.07Z" transform="translate(-5 -9.11)"/></svg>