<svg id="レイヤー_1" data-name="レイヤー 1" xmlns="http://www.w3.org/2000/svg" viewBox="0 0 74.6 44.1"><defs><style>.cls-1{fill:#313131;}</style></defs><title>store2</title><path class="cls-1" d="M19,50.6h6.7V63h1.9V50.6h6.7V63h1.9V50.6h6.7V63h1.9V50.6h6.7V63h1.9V50.6h6.7V63h8.6V41.2H50a12.23,12.23,0,0,1-10.1,5.3,12.36,12.36,0,0,1-10.1-5.3H10.3V63H19V50.6Z" transform="translate(-2.7 -23.3)"/><path class="cls-1" d="M40,45.1A10.9,10.9,0,1,0,29.1,34.2,10.8,10.8,0,0,0,40,45.1Zm-0.9-3.9a0.9,0.9,0,1,1,.9-0.9A0.9,0.9,0,0,1,39.1,41.2Zm3.4,0a0.9,0.9,0,1,1,.9-0.9A0.9,0.9,0,0,1,42.5,41.2Zm-9-13h2.8l0.8,2.2H45l-1.5,4.2H38.7L39.2,36h4.1v1.6H38l-2.8-7.9H33.5V28.2Z" transform="translate(-2.7 -23.3)"/><polygon class="cls-1" points="0 40.9 0 40.9 0 44.1 74.6 44.1 74.6 40.9 74.6 40.9 0 40.9"/><rect class="cls-1" x="54.17" y="56.18" width="4.3" height="0.5" transform="translate(-26.11 33.05) rotate(-45)"/><rect class="cls-1" x="54.77" y="57.99" width="4.3" height="0.5" transform="translate(-27.21 34.01) rotate(-45.01)"/><rect class="cls-1" x="45.49" y="56.21" width="4.3" height="0.5" transform="translate(-28.67 26.92) rotate(-45)"/><rect class="cls-1" x="46.16" y="58.03" width="4.3" height="0.5" transform="translate(-29.76 27.93) rotate(-45)"/><rect class="cls-1" x="36.98" y="56.19" width="4.3" height="0.5" transform="translate(-31.15 20.9) rotate(-45)"/><rect class="cls-1" x="37.61" y="58" width="4.3" height="0.5" transform="translate(-32.25 21.87) rotate(-45)"/><rect class="cls-1" x="28.37" y="56.2" width="4.3" height="0.5" transform="translate(-33.67 14.82) rotate(-45)"/><rect class="cls-1" x="29" y="58" width="4.3" height="0.5" transform="translate(-34.77 15.8) rotate(-45.01)"/><rect class="cls-1" x="19.78" y="56.2" width="4.3" height="0.5" transform="translate(-36.2 8.74) rotate(-45)"/><rect class="cls-1" x="20.44" y="58.02" width="4.3" height="0.5" transform="translate(-37.28 9.74) rotate(-45)"/></svg>