<svg id="レイヤー_1" data-name="レイヤー 1" xmlns="http://www.w3.org/2000/svg" viewBox="0 0 396 333.17"><defs><style>.cls-1{fill:#fff;}</style></defs><title>tirashi</title><path class="cls-1" d="M256,121.92l-198-33V389.08l197,32.84,1,0.16,198-33V88.92ZM70,103.08l180,30V408.92l-180-30V103.08ZM442,378.92l-180,30V133.08l180-30V378.92Z" transform="translate(-58 -88.92)"/><rect class="cls-1" x="287.12" y="250" width="129.77" height="12" transform="translate(-95.3 -27.56) rotate(-9.46)"/><rect class="cls-1" x="287.12" y="175" width="129.77" height="12" transform="translate(-82.97 -28.59) rotate(-9.46)"/><rect class="cls-1" x="287.11" y="324.99" width="129.77" height="12" transform="translate(-107.63 -26.55) rotate(-9.46)"/><rect class="cls-1" x="154" y="191.11" width="12" height="129.77" transform="translate(-176.82 282.82) rotate(-80.54)"/><rect class="cls-1" x="154" y="266.11" width="12" height="129.77" transform="translate(-250.8 345.49) rotate(-80.54)"/><rect class="cls-1" x="154" y="116.12" width="12" height="129.77" transform="translate(-102.84 220.15) rotate(-80.54)"/></svg>